<?xml version="1.0" encoding="utf-8"?>
<svg id="Capa_1" enable-background="new 0 0 512 512" height="512" viewBox="0 0 512 512" width="512" xmlns="http://www.w3.org/2000/svg" xmlns:bx="https://boxy-svg.com">
  <g style="" transform="matrix(1.900691, 0, 0, 1.900691, -102.963081, -221.070786)">
    <g transform="matrix(1.878664, 0, 0, 1.878664, -149.224609, -104.491699)" style="">
      <rect style="fill: none; stroke: rgb(0, 0, 0); stroke-width: 14.0026px;" x="126.198" y="135.118" width="87.644" height="87.644" rx="7.001" ry="7.001"/>
      <path d="M 151.434 174.263 C 152.008 176.505 166.895 194.402 170.12 190.602 C 182.66 175.823 180.839 165.95 197.338 146.818 C 217.145 123.848 239.396 107.571 246.745 107.571" style="fill: none; stroke: rgb(255, 255, 255); stroke-width: 26.6147px;"/>
      <path d="M 151.224 174.033 C 151.798 176.275 166.684 194.172 169.91 190.372 C 182.449 175.593 180.628 165.72 197.127 146.588 C 216.935 123.618 239.186 107.341 246.535 107.341" style="stroke: rgb(0, 0, 0); fill: none; stroke-width: 14.0026px;"/>
    </g>
  </g>
  <path d="M 343.975 204.668 H 412.584 V 336.457 H 549.801 V 402.353 H 412.584 V 534.142 H 343.975 V 402.353 H 206.758 V 336.457 H 343.975 Z" style="fill: rgb(255, 255, 255);" bx:shape="cross 206.758 204.668 343.043 329.474 65.896 68.609 0.5 1@159982e7"/>
  <path d="M 350.066 243.113 H 403.594 V 350.165 H 510.645 V 403.692 H 403.594 V 510.743 H 350.066 V 403.692 H 243.015 V 350.165 H 350.066 Z" style="" bx:shape="cross 243.015 243.113 267.63 267.63 53.527 53.527 0.5 1@2634fc38"/>
</svg>